<svg width="375" height="1120" viewBox="0 0 375 1120" fill="none" xmlns="http://www.w3.org/2000/svg">
  <!-- English2 · 考试结果 · 移动端 375（依据 svgs/result.svg 桌面稿样式重排：三张统计卡并排放小、两栏并排改纵排） -->
  <style>
    .sans { font-family: -apple-system, 'Segoe UI', Roboto, 'Helvetica Neue', Arial, sans-serif; }
    .serif { font-family: Georgia, 'Source Serif 4', 'Times New Roman', serif; }
    text:not([fill]) { fill: #1A2626; }
    .muted { fill: #6F7B77; }
    .card { fill: #FFFFFF; stroke: #EBE8E2; stroke-width: 1; }
  </style>

  <rect width="375" height="1120" fill="#FAF9F6"/>

  <!-- ═══ 系统状态栏 ═══ -->
  <text x="20" y="20" class="sans" font-size="12" font-weight="600">9:41</text>
  <g fill="#1A2626">
    <rect x="298" y="13" width="2.5" height="4" rx="0.5"/>
    <rect x="302" y="11" width="2.5" height="6" rx="0.5"/>
    <rect x="306" y="9" width="2.5" height="8" rx="0.5"/>
    <rect x="310" y="7" width="2.5" height="10" rx="0.5"/>
  </g>
  <path d="M320 15.5a8 8 0 0 1 11 0" stroke="#1A2626" stroke-width="1.6" fill="none" stroke-linecap="round"/>
  <path d="M322.5 18.5a4.5 4.5 0 0 1 6 0" stroke="#1A2626" stroke-width="1.6" fill="none" stroke-linecap="round"/>
  <circle cx="325.5" cy="21" r="1.1" fill="#1A2626"/>
  <rect x="338" y="8" width="19" height="10" rx="2.5" stroke="#1A2626" stroke-width="1.2" fill="none"/>
  <rect x="340" y="10" width="12" height="6" rx="1" fill="#1A2626"/>

  <!-- ═══ 顶栏 ═══ -->
  <line x1="0" y1="84" x2="375" y2="84" stroke="#EBE8E2"/>
  <text x="20" y="63" class="serif" font-size="21" font-weight="700" fill="#17332F">English2</text>
  <rect x="110" y="46" width="88" height="19" rx="4" fill="#E4EEEB"/>
  <text x="154" y="59" text-anchor="middle" class="sans" font-size="8" font-weight="700" letter-spacing="1.2" fill="#1F4A45">EXAM ARCHIVE</text>
  <circle cx="337" cy="56" r="14" fill="#E4EEEB"/>
  <text x="337" y="60" text-anchor="middle" class="sans" font-size="10" font-weight="700" fill="#1F4A45">AL</text>

  <!-- ═══ 成绩 Hero 卡（大分数右上，移动端保持对角构图） ═══ -->
  <rect x="20" y="108" width="335" height="164" rx="10" class="card"/>
  <text x="38" y="140" class="sans" font-size="9.5" font-weight="700" letter-spacing="1.2" fill="#1F4A45">EXAMINATION PERFORMANCE</text>
  <text x="337" y="150" text-anchor="end" class="serif" font-size="40" font-weight="600" fill="#1F4A45">78</text>
  <text x="337" y="166" text-anchor="end" class="sans muted" font-size="11" fill="#8A948F">/ 100</text>
  <text x="38" y="176" class="serif" font-size="17" font-weight="600">2026 National Exam Paper I</text>
  <text x="38" y="202" class="sans muted" font-size="11" fill="#6F7B77">Excellent theoretical accuracy. Reviewing the</text>
  <text x="38" y="219" class="sans muted" font-size="11" fill="#6F7B77">historical context in Sections 2 and 3 will solidify</text>
  <text x="38" y="236" class="sans muted" font-size="11" fill="#6F7B77">your preparation for structural syntax questions.</text>

  <!-- ═══ 三张统计卡（一行三列，压缩字号） ═══ -->
  <rect x="20" y="288" width="105" height="72" rx="10" class="card"/>
  <text x="32" y="314" class="sans" font-size="8" font-weight="700" letter-spacing="0.8" fill="#8A948F">CORRECT</text>
  <text x="32" y="328" class="sans" font-size="8" font-weight="700" letter-spacing="0.8" fill="#8A948F">ANSWERS</text>
  <text x="32" y="350" class="sans" font-size="16" font-weight="700" fill="#2E7D5B">48 / 61</text>

  <rect x="135" y="288" width="105" height="72" rx="10" class="card"/>
  <text x="147" y="314" class="sans" font-size="8" font-weight="700" letter-spacing="0.8" fill="#8A948F">COMPLETION</text>
  <text x="147" y="328" class="sans" font-size="8" font-weight="700" letter-spacing="0.8" fill="#8A948F">TIME</text>
  <text x="147" y="350" class="sans" font-size="16" font-weight="700">1h 42m</text>

  <rect x="250" y="288" width="105" height="72" rx="10" class="card"/>
  <text x="262" y="314" class="sans" font-size="8" font-weight="700" letter-spacing="0.8" fill="#8A948F">OVERALL</text>
  <text x="262" y="328" class="sans" font-size="8" font-weight="700" letter-spacing="0.8" fill="#8A948F">ACCURACY</text>
  <text x="262" y="350" class="sans" font-size="16" font-weight="700" fill="#2E7D5B">78.6%</text>

  <!-- ═══ Section Breakdown（桌面左列表原样纵排） ═══ -->
  <text x="20" y="400" class="serif" font-size="19" font-weight="600">Section Breakdown</text>
  <rect x="20" y="416" width="335" height="200" rx="10" class="card"/>

  <text x="38" y="446" class="sans" font-size="12" font-weight="600">1 · Listening Comprehension</text>
  <text x="262" y="446" text-anchor="end" class="sans muted" font-size="11" fill="#6F7B77">16 / 20</text>
  <text x="337" y="446" text-anchor="end" class="sans" font-size="12" font-weight="700" fill="#1F4A45">80%</text>
  <line x1="38" y1="464" x2="337" y2="464" stroke="#F0EEE9"/>

  <text x="38" y="494" class="sans" font-size="12" font-weight="600">2 · Reading Comprehension</text>
  <text x="262" y="494" text-anchor="end" class="sans muted" font-size="11" fill="#6F7B77">18 / 20</text>
  <text x="337" y="494" text-anchor="end" class="sans" font-size="12" font-weight="700" fill="#1F4A45">90%</text>
  <line x1="38" y1="512" x2="337" y2="512" stroke="#F0EEE9"/>

  <text x="38" y="542" class="sans" font-size="12" font-weight="600">3 · Cloze Test</text>
  <text x="262" y="542" text-anchor="end" class="sans muted" font-size="11" fill="#6F7B77">14 / 20</text>
  <text x="337" y="542" text-anchor="end" class="sans" font-size="12" font-weight="700" fill="#1F4A45">70%</text>
  <line x1="38" y1="560" x2="337" y2="560" stroke="#F0EEE9"/>

  <text x="38" y="590" class="sans" font-size="12" font-weight="600">4 · Analytical Writing</text>
  <text x="262" y="590" text-anchor="end" class="sans muted" font-size="11" fill="#6F7B77">30 / 40</text>
  <text x="337" y="590" text-anchor="end" class="sans" font-size="12" font-weight="700" fill="#1F4A45">75%</text>

  <!-- ═══ Incorrect Answers Review（桌面右列卡片纵排） ═══ -->
  <text x="20" y="654" class="serif" font-size="19" font-weight="600">Incorrect Answers Review</text>

  <rect x="20" y="672" width="335" height="102" rx="10" class="card"/>
  <text x="38" y="700" class="sans" font-size="12" font-weight="700" fill="#B04A3E">Q12</text>
  <text x="70" y="700" class="sans muted" font-size="10.5" fill="#8A948F">Reading</text>
  <rect x="216" y="686" width="72" height="18" rx="4" fill="#E3F1EA"/>
  <text x="252" y="698.5" text-anchor="middle" class="sans" font-size="8.5" font-weight="700" fill="#2E7D5B">CORRECT: B</text>
  <rect x="296" y="686" width="59" height="18" rx="4" fill="#F9E9E6"/>
  <text x="325.5" y="698.5" text-anchor="middle" class="sans" font-size="8.5" font-weight="700" fill="#B04A3E">YOURS: A</text>
  <text x="38" y="728" class="serif" font-size="11.5" fill="#3A4744">"According to the text, which of the following</text>
  <text x="38" y="746" class="serif" font-size="11.5" fill="#3A4744">statements best describes the modern scholar's duty?"</text>

  <rect x="20" y="788" width="335" height="102" rx="10" class="card"/>
  <text x="38" y="816" class="sans" font-size="12" font-weight="700" fill="#B04A3E">Q15</text>
  <text x="70" y="816" class="sans muted" font-size="10.5" fill="#8A948F">Reading</text>
  <rect x="216" y="802" width="72" height="18" rx="4" fill="#E3F1EA"/>
  <text x="252" y="814.5" text-anchor="middle" class="sans" font-size="8.5" font-weight="700" fill="#2E7D5B">CORRECT: D</text>
  <rect x="296" y="802" width="59" height="18" rx="4" fill="#F9E9E6"/>
  <text x="325.5" y="814.5" text-anchor="middle" class="sans" font-size="8.5" font-weight="700" fill="#B04A3E">YOURS: C</text>
  <text x="38" y="844" class="serif" font-size="11.5" fill="#3A4744">"What is the primary risk of relying on single</text>
  <text x="38" y="862" class="serif" font-size="11.5" fill="#3A4744">historical archives?"</text>

  <!-- ═══ 操作按钮（纵排整宽） ═══ -->
  <rect x="20" y="922" width="335" height="44" rx="8" fill="#FFFFFF" stroke="#D8D4CC"/>
  <text x="187.5" y="949" text-anchor="middle" class="sans" font-size="13" font-weight="600">Review Mistakes</text>
  <rect x="20" y="976" width="335" height="44" rx="8" fill="#1F4A45"/>
  <text x="187.5" y="1003" text-anchor="middle" class="sans" font-size="13" font-weight="600" fill="#FFFFFF">Continue Learning</text>

  <!-- ═══ 底部标签栏（Exams 激活） ═══ -->
  <g transform="translate(0,1052)">
    <rect x="0" y="0" width="375" height="68" fill="#FFFFFF"/>
    <line x1="0" y1="0" x2="375" y2="0" stroke="#EBE8E2"/>
    <g transform="translate(47,22)" stroke="#8A948F" stroke-width="1.6" fill="none" stroke-linecap="round" stroke-linejoin="round">
      <path d="M-7 0.5 L0 -5.5 L7 0.5"/>
      <path d="M-4.8 -1.5 V6.5 H4.8 V-1.5"/>
    </g>
    <text x="47" y="44" text-anchor="middle" class="sans" font-size="10" fill="#8A948F">Home</text>
    <rect x="106.6" y="0" width="68" height="2.5" rx="1" fill="#1F4A45"/>
    <g transform="translate(140.6,22)" stroke="#1F4A45" stroke-width="1.6" fill="none" stroke-linecap="round" stroke-linejoin="round">
      <rect x="-6.5" y="-4" width="13" height="10.5" rx="1.5"/>
      <path d="M-6.5 -0.5 H6.5"/>
      <path d="M-3 -6.8 H3"/>
    </g>
    <text x="140.6" y="44" text-anchor="middle" class="sans" font-size="10" font-weight="600" fill="#1F4A45">Exams</text>
    <g transform="translate(234.4,22)" stroke="#8A948F" stroke-width="1.6" fill="none" stroke-linecap="round" stroke-linejoin="round">
      <path d="M0 -4.5 C-2 -6.2 -4.8 -5.8 -6.5 -4.8 V5.2 C-4.8 4.3 -2 4.6 0 5.8 C2 4.6 4.8 4.3 6.5 5.2 V-4.8 C4.8 -5.8 2 -6.2 0 -4.5 Z"/>
      <path d="M0 -4.5 V5.8"/>
    </g>
    <text x="234.4" y="44" text-anchor="middle" class="sans" font-size="10" fill="#8A948F">Study</text>
    <g transform="translate(328.1,22)" stroke="#8A948F" stroke-width="1.6" fill="none" stroke-linecap="round">
      <circle r="2.4"/>
      <path d="M0 -6.4 V-4.2 M0 4.2 V6.4 M-6.4 0 H-4.2 M4.2 0 H6.4 M-4.5 -4.5 L-3 -3 M3 3 L4.5 4.5 M4.5 -4.5 L3 -3 M-3 3 L-4.5 4.5"/>
    </g>
    <text x="328.1" y="44" text-anchor="middle" class="sans" font-size="10" fill="#8A948F">Settings</text>
    <rect x="152" y="60" width="71" height="4" rx="2" fill="#1A2626" opacity="0.85"/>
  </g>
</svg>
